<svg width="140" height="140" viewBox="0 0 140 140" fill="none" xmlns="http://www.w3.org/2000/svg">
<path fill-rule="evenodd" clip-rule="evenodd" d="M81.2614 3.01823C82.1823 2.3355 83.4693 2.54655 84.136 3.48963C86.8828 7.37513 88.203 11.859 89.3215 16.0205C91.4396 23.9017 95.2547 32.4823 95.5367 40.6886C104.506 40.4632 114.886 41.7903 123.376 44.5764C125.581 45.3002 127.709 45.998 129.832 46.5398C131.729 47.0239 133.726 47.4765 135.77 48.459C136.845 48.9754 137.25 50.2245 136.918 51.3199C136.265 53.4789 134.074 55.6356 132.502 57.1779C128.371 61.2283 123.258 65.9556 118.033 68.8967C112.47 72.0279 106.993 75.3849 101.452 78.5804C101.452 78.5804 101.839 80.374 101.997 81.2809C102.582 84.6412 102.558 87.9377 102.521 91.3304C102.454 97.6147 101.383 103.749 101.221 109.995C101.136 113.265 100.474 118.611 100.237 119.805C100 121 99.7114 121.765 98.7187 122.074C96.8879 122.645 95.5 121 96.0676 118.831C96.6352 116.662 97.0294 112.902 97.1056 109.86C97.2601 103.693 98.3315 97.6431 98.401 91.4411C98.4444 87.5706 98.5288 83.7456 97.5483 79.9572C97.1661 78.4801 96.7416 76.4397 98.1648 75.3736C103.418 71.439 110.259 68.4617 116.05 65.2019C120.752 62.5547 125.524 58.1833 129.654 54.1327C129.649 54.1382 129.669 54.1161 129.711 54.0701C130.484 53.2256 131.243 52.3659 131.96 51.4722C131.013 51.1736 130.006 50.9294 128.836 50.6308C126.582 50.0554 124.369 49.3298 122.159 48.6047C113.736 45.8409 103.482 44.628 94.5977 44.9348C93.9115 45.1212 93.1959 45.0624 92.6033 44.6351C91.5532 43.8778 91.4631 42.0498 91.4222 40.8375C91.1577 32.9977 87.375 24.6667 85.352 17.1393C84.231 12.9683 83.0652 9.16478 80.8011 5.96201C80.1344 5.01893 80.3405 3.70096 81.2614 3.01823Z" fill="#F5F500"/>
<path d="M33.1186 53.9863L20.0818 33.0296L57.9141 37.7449L80.9202 5L90.8896 44.5558L130 52.4146L96.5133 74.6811C96.7689 77.9119 97.1268 86.7836 96.5133 96.4237C95.8998 106.064 93.7014 115.11 92.6789 118.428L69.4172 90.1367L62.2597 91.7084C64.4751 99.7418 68.5992 115.966 67.3722 116.595C66.1452 117.223 51.5235 108.299 44.3661 103.759L23.6605 120V93.2802L5 75.9909L29.0286 69.18L33.1186 53.9863Z" fill="white"/>
<path fill-rule="evenodd" clip-rule="evenodd" d="M23.0125 35.4523C22.4233 36.0377 22.5325 36.9884 23.3481 38.3678C23.9128 39.3232 30.7409 47.7925 32.0824 49.2015C33.4259 50.6129 34.6374 50.9232 35.6655 50.1197C36.5151 49.4554 37.621 46.6639 37.0067 45.4877C36.1975 43.938 33.3075 40.4984 30.2959 37.5C26.1057 33.3286 24.0782 34.3933 23.0125 35.4523ZM7.57278 76.4987C7.25781 76.8117 7 77.2594 7 77.4935C7 78.683 19.4002 88.6076 21.4734 89.9514L23.2758 91.1198L23.0633 92.9586C22.2432 100.054 23.1361 107.097 23.5695 114.148C24.0241 121.536 29.0896 114.252 31.6608 112.135C34.5283 109.776 40.9919 104.857 44.0585 102.701C44.8254 102.162 45.2236 102.005 45.4404 102.158C45.6078 102.275 46.5167 102.958 47.46 103.676C52.7568 107.703 59.9672 113.822 66.398 115.1C72.7284 116.358 65.283 109.021 63.9894 108.281C62.6429 107.512 60.4424 106.081 59.0989 105.1C57.7553 104.12 54.7899 102.071 52.5088 100.548C50.2278 99.024 47.3233 96.9801 46.0542 96.006C44.2511 94.622 43.6633 94.2796 43.364 94.4389C43.1535 94.5509 42.1236 95.4344 41.0756 96.4021C40.0275 97.3695 37.9218 99.1445 36.396 100.346C34.8702 101.548 32.5753 103.586 31.2959 104.876C30.0165 106.166 28.9698 107.086 28.9698 106.92C28.9698 106.754 29.1164 104.46 29.2957 101.822C29.8916 93.0547 30.1734 86.4369 29.9598 86.2273C29.8468 86.1163 28.9474 85.7301 27.961 85.369C23.7528 83.8286 18.8101 81.3419 14.8567 78.7764C12.683 77.3657 10.4833 76.3581 8.97392 76.0812C8.27066 75.9522 8.05926 76.0153 7.57278 76.4987ZM68.3948 81.2876C67 83 61.5 89.4135 61.5 89.4135C61.5 89.4135 64.9214 89.2204 66.3965 88.7757C67.9487 88.3079 68.0272 88.3315 68.5087 89.4135C69.0169 90.5549 71.8098 94.7588 73.1183 96.352C74.2079 97.6786 80.3314 104.793 83.089 107.936C84.164 109.161 85.9904 111.366 87.1476 112.836C89.549 115.887 92.2589 119.102 92.9398 119.708C93.1942 119.934 93.5079 120.055 93.637 119.976C93.9394 119.79 95 116.342 95 115.545C95 114.775 94.3048 113.448 93.5262 112.731C93.1974 112.429 91.8159 110.524 90.4565 108.499C85.2705 100.774 72.9029 84.1062 70.8229 82.0395C69.561 80.7855 68.6049 80.4895 68.3948 81.2876Z" fill="black"/>
<path fill-rule="evenodd" clip-rule="evenodd" d="M57.4228 31.8621C65.5314 19.7115 76.2901 5.18175 78.9461 2.79395C79.8825 1.95241 80.1974 1.84229 80.7219 2.17312C81.3285 2.55576 85.1015 14.0504 87.7609 23.6194C90.0594 31.8894 91.6204 37.0403 92.8552 40.4279C93.3919 41.9009 93.8313 43.1217 93.8313 43.141C93.8313 43.1603 95.0232 43.241 96.4799 43.3209C103.849 43.7239 120.249 46.9075 128.545 49.5454C132.211 50.711 132.616 51.0474 132.928 53.1843C133.08 54.2268 133.055 54.2923 132.224 55.0737C128.949 58.1505 117.16 65.4756 108.486 69.8217C107.574 70.2788 105.585 71.3938 104.065 72.2995C102.545 73.2054 100.762 74.1714 100.103 74.4464C99.4429 74.7213 98.8016 75.0214 98.6776 75.1132C98.5361 75.2181 98.4894 76.6437 98.5523 78.9441C98.7689 86.8822 98.6328 93.2938 98.1342 98.6447C96.8881 112.012 95.4989 119.543 94.0729 120.662C92.6307 121.793 90.426 120.523 87.1766 116.689C84.7381 113.812 69.0139 92.1402 66.7799 92.1402C66.6278 92.1402 64.5006 93.0242 64.3498 93.15C64.3139 93.1798 64.7501 94.5545 65.319 96.2048C66.2462 98.8943 70.1399 113.954 70.5207 116.323C70.6268 116.983 70.5563 117.57 70.2862 118.274C69.505 120.309 68.2183 120.46 64.7258 118.923C57.575 115.776 50.3688 111.558 44.9778 107.363C44.2058 106.762 43.445 106.272 43.2872 106.275C42.7985 106.282 38.5091 110.107 32.7444 115.678C26.9664 121.261 26.5765 121.616 24.6129 123.084C21.9551 125.071 20.7182 123.763 19.8887 118.086C18.9638 111.759 18.9266 103.276 19.7972 97.204L20.1484 94.7541L17.8244 92.4195C16.5461 91.1354 13.2873 88.0083 10.5823 85.47C7.87759 82.932 4.99749 80.0945 4.18217 79.1643C3.36708 78.2342 2.38608 77.2628 2.00266 77.0058C1.07463 76.3836 0.755675 75.4768 1.1941 74.7081C1.96727 73.3525 2.89777 73.0663 15.2292 70.3919C24.4849 68.3842 25.7717 68.0583 25.9929 67.6654C26.0905 67.4916 26.485 66.1005 26.8691 64.5742C27.7202 61.193 28.7862 57.7071 30.0726 54.0998L31.0403 51.385L29.0623 49.2776C25.7163 45.7125 21.8309 40.5206 19.512 36.5161C17.5764 33.1733 17.2451 31.8659 18.1014 30.9512C18.5071 30.5179 18.7941 30.4602 20.5483 30.4602C24.1914 30.4602 30.3506 31.069 38.9433 32.2781C42.2169 32.7388 52.109 34.5542 53.4838 34.9465C55.0616 35.3967 55.0666 35.3928 57.4228 31.8621ZM78.9461 10C78.9461 10 77.3895 12.7139 73.5 18.5C59.6701 39.0737 58.5576 41.2254 57.5146 41.3147C55.8173 41.46 53.8577 40.7584 52.2181 40.4279C47.6149 39.5005 43.0109 37.5227 34 36.5569C27.1709 35.8248 25 36 25 36C26.674 37.4764 32.9362 46.6275 34 44.5C34.8122 42.7196 35.7487 42.8025 36.6378 42.7989C37.5662 42.7949 38.9771 44.216 41.4028 47.5981C44.5745 52.0206 50.5615 61.112 51.4415 62.8418L52.2181 64.369L53.3575 64.2333C57.6521 63.7221 73.8904 63.472 76.6999 63.8737C78.0267 64.0635 78.2557 64.1786 79.1231 65.0898C80.8653 66.9203 80.6072 67.5772 75.4583 74.4212C71.7422 79.361 69.6918 81.8796 66.8133 85.0398C65.3702 86.624 64.0379 87.8979 64 88C63.9404 88.1594 67.706 86.4279 68.6858 87C76.8025 91.7434 82.5875 102.935 88.5 110C89.8667 111.633 91 113.5 91 113.5C91 113.5 91.3609 112.289 91.5 110.5C91.6393 108.711 91.8488 105.701 92.1578 102C92.9634 92.3499 93.0563 89.3726 92.8552 83C92.6167 75.4492 92.7317 72.8956 93.2745 72.2995C93.9068 71.6046 102.02 67.0211 112 61.5C125.372 54.102 125.5 53.5 125.5 53.5C125.45 53.4502 124.335 53.1605 121.5 52.5C118.665 51.8395 116.558 51.6343 116 51.5C110.044 50.0648 104.238 49.4096 100.103 49C92.2719 48.2248 91.6142 48.1439 90.5 47C89.0986 45.5614 84.9238 34.8769 82 23C81.1265 19.4532 80 12.5 78.9461 10ZM45.9985 64.5328C45.4661 63.6076 43.4559 59.7008 41 56C38.5441 52.2992 37.1623 50.2324 37 50C36.9211 49.8869 35.2377 55.211 35 56C33.7683 60.0877 33.3543 62.6098 32.5 66C32.1114 67.542 31.1806 70.8745 31 71.5L30.5354 72.693L28 73.5C26.6056 73.9436 21.2091 74.9941 16.5 76C11.7909 77.0062 10.5 77 10.5 77C10.3343 77.0527 11.1821 77.855 12.416 78.8132C18.1461 83.2624 21.5 87 26 91C24.9126 97.5246 24.5306 104.409 25 111C25.1538 113.159 25.2412 114.097 25.5 114C25.5 114 26.4255 113.734 27.5 112.5C32.7796 106.438 40.8797 98.3026 42.5 98C43.4676 97.8196 47.8398 101.526 48.5 102C50.2193 103.234 62.1433 112.352 63 111.5C63.2002 111.301 61.2375 102.067 59.5 96.2048C57.8248 90.5518 57.9101 87.1868 58 87.5C58 87.5 58.7674 85.0815 62 81.5C63.6667 79.6534 65.3585 77.9841 66.5 76.5C71.4126 70.1117 72.103 69.1657 72 69C71.8485 68.756 64.8556 68.216 57 68.5C49.5 69 48.9275 69.1009 47.5 67C47.2067 66.5682 46.531 65.458 45.9985 64.5328Z" fill="#323239"/>
<path d="M26.9457 130.011C31.1059 129.469 35.9691 129.228 45.9143 129.069C50.0129 129.004 56.7197 128.981 60.8183 129.018C64.9169 129.055 74.9263 129.11 83.0613 129.14C99.6382 129.2 101.997 129.277 116.144 130.221C118.628 130.386 122.328 130.626 124.366 130.753C126.405 130.88 128.412 131.076 128.826 131.188C130.202 131.56 130.427 132.679 129.188 132.987C128.3 133.207 125.826 133.564 124.499 133.663C122.366 133.823 104.399 134.229 100.3 134.211C98.045 134.201 93.7771 134.125 90.8159 134.043C84.825 133.878 77.7438 133.849 76.4749 133.985C75.6776 134.07 75.6469 134.096 75.6457 134.678C75.6441 135.354 74.8 136.651 74.0052 137.199C73.411 137.609 71.2931 138.061 68.9477 138.279C68.0783 138.36 64.2169 138.491 60.3667 138.572C56.5165 138.652 51.0291 138.784 48.1725 138.865C41.6498 139.05 38.3971 139.046 35.5267 138.848C34.2847 138.763 30.939 138.7 28.0917 138.708C25.2444 138.717 21.8402 138.654 20.5268 138.569C14.3024 138.165 6.83592 137.222 4.07191 136.49C2.90872 136.182 1.98219 135.536 2.00026 135.045C2.0102 134.777 2.67794 134.271 3.31339 134.051C4.01952 133.806 11.5347 133.465 18.6469 133.355C21.9072 133.305 24.5746 133.214 24.5746 133.153C24.5746 133.092 24.022 132.93 23.3468 132.793C21.7496 132.467 21.1408 132.1 21.2309 131.518C21.326 130.904 22.1348 130.556 23.8994 130.371C24.7053 130.286 26.0763 130.124 26.9457 130.011Z" fill="#323239"/>
</svg>
